# xmcd
#
# Track frame offsets: 
#        150
#        17500
#        31924
#        61095
#        79935
#        97967
#        113714
#        132025
#        152607
#        173579
#        192656
#        209281
#        228936
#        248717
#        267731
#        291768
#
# Disc length: 4135 seconds
#
# Revision: 4
# Processed by: cddbd v1.5.2PL0 Copyright (c) Steve Scherf et al.
# Submitted via: ExactAudioCopy v1.0b4
#
DISCID=cf102510
DTITLE=The Climax Blues Band - 25 Years 1968-1993 [ disk 2]
DYEAR=1994
DGENRE=Blues Rock
TTITLE0=Together And Free
TTITLE1=Couldn't Get It Right
TTITLE2=Watcha Feel
TTITLE3=Like A Movie
TTITLE4=Children Of The Nighttime
TTITLE5=Gotta Have More Love
TTITLE6=I Love You
TTITLE7=Cutting Up Rough
TTITLE8=The Last Chance Saloon
TTITLE9=Friends In High Places
TTITLE10=Listen To The Night
TTITLE11=The Movie Queen
TTITLE12=California Sunshine
TTITLE13=Ordinary People
TTITLE14=Fool For The Bright Lights
TTITLE15=Don't Start Me Talking (Live)
EXTD=
EXTT0=
EXTT1=
EXTT2=
EXTT3=
EXTT4=
EXTT5=
EXTT6=
EXTT7=
EXTT8=
EXTT9=
EXTT10=
EXTT11=
EXTT12=
EXTT13=
EXTT14=
EXTT15=
PLAYORDER=
